# xmcd
#
# Track frame offsets: 
#        150
#        17439
#        27987
#        46137
#        63815
#        75318
#        89928
#        101779
#        116517
#        131089
#
# Disc length: 1966 seconds
#
# Revision: 0
# Processed by: cddbd v1.5.1PL0 Copyright (c) Steve Scherf et al.
# Submitted via: ExactAudioCopy v0.95a4
#
DISCID=7907ac0a
DTITLE=Chris Cummings - Chris Cummings Greatest Hits
DYEAR=2004
DGENRE=Country
TTITLE0=Betty
TTITLE1=No One Hurts Me
TTITLE2=Somewhere Inside
TTITLE3=Lucy Got Lucky
TTITLE4=That'll Teach her
TTITLE5=I Waited
TTITLE6=The Kind Of Heart That Breaks
TTITLE7=Not Again
TTITLE8=Sure Enough
TTITLE9=Benefit Of Doubt
EXTD=
EXTT0=
EXTT1=
EXTT2=
EXTT3=
EXTT4=
EXTT5=
EXTT6=
EXTT7=
EXTT8=
EXTT9=
PLAYORDER=
